# xmcd
#
# Track frame offsets: 
#        182
#        15725
#        30285
#        51585
#        72307
#        90227
#        102580
#        126787
#        143565
#        159945
#        176162
#        192187
#        210340
#        234925
#
# Disc length: 3281 seconds
#
# Revision: 6
# Processed by: cddbd v1.5.2PL0 Copyright (c) Steve Scherf et al.
# Submitted via: ExactAudioCopy v1.0b4
#
DISCID=b10ccf0e
DTITLE=Johnny Winter - Hey, where's your brother
DYEAR=1992
DGENRE=Blues
TTITLE0=Johnny Guitar
TTITLE1=She likes to boogie real low
TTITLE2=White line blues
TTITLE3=Please come home for Christmas
TTITLE4=Hard way
TTITLE5=You must have a twin
TTITLE6=You keep sayin' that you're leavin'
TTITLE7=Treat me like you wanta
TTITLE8=Sick and tired
TTITLE9=Blues this bad
TTITLE10=No more doggin'
TTITLE11=Check out her mama
TTITLE12=Got my brand on you
TTITLE13=One step forward (two steps back)
EXTD=
EXTT0=
EXTT1=
EXTT2=
EXTT3=
EXTT4=
EXTT5=
EXTT6=
EXTT7=
EXTT8=
EXTT9=
EXTT10=
EXTT11=
EXTT12=
EXTT13=
PLAYORDER=
